<?xml version="1.0" standalone="no"?>
<!DOCTYPE svg PUBLIC "-//W3C//DTD SVG 20010904//EN"
 "http://www.w3.org/TR/2001/REC-SVG-20010904/DTD/svg10.dtd">
<svg version="1.0" xmlns="http://www.w3.org/2000/svg"
 width="700.000000pt" height="700.000000pt" viewBox="0 0 700.000000 700.000000"
 preserveAspectRatio="xMidYMid meet">
<metadata>
Created by potrace 1.11, written by Peter Selinger 2001-2013
</metadata>
<g transform="translate(0.000000,700.000000) scale(0.100000,-0.100000)"
fill="#000000" stroke="none">
<path d="M0 3500 l0 -3500 3495 0 3495 0 0 3500 0 3500 -3495 0 -3495 0 0
-3500z m2510 895 l639 -629 -492 -485 c-271 -267 -562 -554 -647 -637 l-155
-152 -137 131 -136 132 509 499 c280 275 509 503 509 507 0 4 -229 231 -510
505 l-510 499 138 132 c75 73 141 132 145 130 5 -1 296 -286 647 -632z m2670
-2100 l0 -185 -1085 0 -1085 0 0 185 0 185 1085 0 1085 0 0 -185z"/>
</g>
</svg>
