<svg xmlns="http://www.w3.org/2000/svg" xmlns:xlink="http://www.w3.org/1999/xlink" version="1.1" x="0px" y="0px" viewBox="0 0 100 125" enable-background="new 0 0 100 100" xml:space="preserve"><g display="none"><g display="inline"><g><path fill-rule="evenodd" clip-rule="evenodd" fill="#000000" d="M30,27C17.35,27,7,37.35,7,50l0,0c0,12.65,10.35,23,23,23h40     c12.65,0,23-10.35,23-23l0,0c0-12.65-10.35-23-23-23H30z M30,67c-9.389,0-17-7.61-17-17s7.611-17,17-17s17,7.61,17,17     S39.389,67,30,67z"/></g></g></g><g><path fill-rule="evenodd" clip-rule="evenodd" d="M30,27C17.35,27,7,37.35,7,50l0,0c0,12.65,10.35,23,23,23h40   c12.65,0,23-10.35,23-23l0,0c0-12.65-10.35-23-23-23H30z M30,67c-9.389,0-17-7.61-17-17s7.611-17,17-17s17,7.61,17,17   S39.389,67,30,67z"/></g><g display="none"><g display="inline"><path fill="#000000" stroke="#E00C02" stroke-width="4" stroke-miterlimit="10" d="M93,50c0,12.65-10.35,23-23,23H30    C17.35,73,7,62.65,7,50l0,0c0-12.65,10.35-23,23-23h40C82.65,27,93,37.35,93,50L93,50z"/></g><circle display="inline" fill-rule="evenodd" clip-rule="evenodd" fill="#000000" stroke="#E00C02" stroke-width="4" stroke-miterlimit="10" cx="30" cy="50" r="17"/></g><g display="none"><path display="inline" d="M70,75H30C16.215,75,5,63.785,5,50s11.215-25,25-25h40c13.785,0,25,11.215,25,25S83.785,75,70,75z M30,29   C18.421,29,9,38.421,9,50s9.421,21,21,21h40c11.579,0,21-9.421,21-21s-9.421-21-21-21H30z M30,69c-10.477,0-19-8.523-19-19   s8.523-19,19-19s19,8.523,19,19S40.477,69,30,69z M30,35c-8.271,0-15,6.729-15,15s6.729,15,15,15s15-6.729,15-15S38.271,35,30,35z"/></g></svg>