<svg xmlns="http://www.w3.org/2000/svg" xmlns:xlink="http://www.w3.org/1999/xlink" version="1.1" x="0px" y="0px" viewBox="0 0 100 125" enable-background="new 0 0 100 100" xml:space="preserve"><g><g><path d="M50,48.7c-11.7,0-21.2-9.5-21.2-21.2c0-11.7,9.5-21.2,21.2-21.2s21.2,9.5,21.2,21.2C71.2,39.2,61.7,48.7,50,48.7z     M50,11.3c-8.9,0-16.2,7.3-16.2,16.2c0,8.9,7.3,16.2,16.2,16.2s16.2-7.3,16.2-16.2C66.2,18.6,58.9,11.3,50,11.3z"/></g><g><path d="M86,94.3C86,94.3,86,94.3,86,94.3H14c-1.4,0-2.5-1.1-2.5-2.5c0-21.2,17.3-38.5,38.5-38.5c21.1,0,38.3,17.1,38.5,38.2    c0,0.1,0,0.2,0,0.3C88.5,93.1,87.4,94.3,86,94.3z M16.6,89.3h66.8c-1.3-17.3-15.8-31-33.4-31S17.9,72,16.6,89.3z"/></g></g><text x="0" y="115" fill="#000000" font-size="5px" font-weight="bold" font-family="'Helvetica Neue', Helvetica, Arial-Unicode, Arial, Sans-serif">Created by Danielle Torres</text><text x="0" y="120" fill="#000000" font-size="5px" font-weight="bold" font-family="'Helvetica Neue', Helvetica, Arial-Unicode, Arial, Sans-serif">from the Noun Project</text></svg>